<svg xmlns="http://www.w3.org/2000/svg" viewBox="0 0 512 512" width="100%" height="100%">
  <!-- Deep premium blue background -->
  <rect width="512" height="512" rx="112" fill="#2563EB"/>
  
  <!-- Subtle background glow -->
  <circle cx="256" cy="256" r="210" fill="none" stroke="#60A5FA" stroke-width="4" stroke-opacity="0.3" stroke-dasharray="12 12"/>
  <circle cx="256" cy="256" r="190" fill="none" stroke="#F1F5F9" stroke-width="2" stroke-opacity="0.2"/>

  <!-- Golden sacred cow silhouette -->
  <g transform="translate(106, 116)" fill="#F59E0B">
    <!-- Body & Neck -->
    <path d="M 240 180 Q 230 110 200 90 Q 185 80 155 80 Q 140 80 125 90 Q 110 100 100 115 Q 85 140 85 180 Q 85 220 120 235 L 140 240 L 140 270 Q 140 278 145 280 Q 150 282 155 280 L 165 270 L 165 242 Q 220 235 240 180 Z" />
    
    <!-- Face -->
    <path d="M 125 90 L 100 50 Q 95 40 85 55 Q 75 70 85 100 Q 95 120 110 125 L 125 90 Z" />

    <!-- Ears -->
    <path d="M 125 90 Q 145 105 135 120 Q 125 125 115 110 Z" />

    <!-- Horns -->
    <path d="M 105 55 Q 115 15 130 10 Q 125 25 115 50" fill="none" stroke="#F59E0B" stroke-width="12" stroke-linecap="round"/>
    
    <!-- Flute or Decorative Elements -->
    <path d="M 60 170 L 250 170" fill="none" stroke="#FFFFFF" stroke-width="6" stroke-linecap="round"/>
    
    <!-- Stars for Premium SaaS Theme -->
    <path d="M 230 60 L 234 68 L 242 70 L 235 76 L 237 84 L 230 79 L 223 84 L 225 76 L 218 70 L 226 68 Z" fill="#F1F5F9"/>
    <path d="M 70 90 L 72 94 L 76 95 L 73 98 L 74 102 L 70 100 L 66 102 L 67 98 L 64 95 L 68 94 Z" fill="#F1F5F9" opacity="0.8"/>
  </g>
</svg>
